<svg width="827" height="875" viewBox="0 0 827 875" fill="none" xmlns="http://www.w3.org/2000/svg">
<path d="M18.098 874.471C18.098 874.471 357.654 875.655 408.775 874.48C459.917 875.655 808.902 874.471 808.902 874.471C808.902 874.471 827 870.753 827 857.368C827 842.422 821.492 811.265 790.804 766.649C760.116 722.034 728.025 694.795 700.314 673.7C671.987 652.135 614.84 626.249 575.202 607.52C526.416 584.468 482.224 548.107 468.974 531.673C456.384 516.057 434.352 477.39 431.992 450.62C429.631 423.851 437.787 395.066 460.319 356.184C478.417 324.952 524.842 289.26 572.054 266.952C639.725 234.977 699.527 204.489 737.297 167.31C775.539 129.664 822.279 67.6918 822.279 22.3079C822.279 1.4872 811.263 0 811.263 0H15.7374C15.7374 0 4.72119 1.4872 4.72119 22.3079C4.72119 67.6918 51.4607 129.664 89.7031 167.31C127.473 204.489 187.275 234.977 254.946 266.952C302.158 289.26 348.583 324.952 366.681 356.184C389.213 395.066 397.369 423.851 395.009 450.62C392.648 477.39 370.616 516.057 358.026 531.673C344.776 548.107 300.584 584.468 251.798 607.52C212.16 626.249 155.013 652.135 126.686 673.7C98.9751 694.795 66.8839 722.034 36.196 766.649C5.50804 811.265 -8.2042e-06 842.422 0 857.368C7.34736e-06 870.753 18.098 874.471 18.098 874.471Z" fill="url(#paint0_linear_2_78)"/>
<defs>
<linearGradient id="paint0_linear_2_78" x1="413.5" y1="0" x2="413.5" y2="875" gradientUnits="userSpaceOnUse">
<stop stop-color="#4261F7"/>
<stop offset="0.411458" stop-color="#FF6199"/>
<stop offset="0.786458" stop-color="#FF7B64"/>
<stop offset="1" stop-color="#FDECA5"/>
</linearGradient>
</defs>
</svg>
