<svg width="105" height="19" viewBox="0 0 105 19" fill="none" xmlns="http://www.w3.org/2000/svg">
<path d="M14.4397 18V0.983999H11.1037V7.824H3.68772V0.983999H0.375717V18H3.68772V10.944H11.1037V18H14.4397ZM22.8425 15.456C21.2825 15.456 19.8425 14.304 19.8425 12.096C19.8425 9.864 21.2825 8.736 22.8425 8.736C24.4025 8.736 25.8425 9.864 25.8425 12.096C25.8425 14.328 24.4025 15.456 22.8425 15.456ZM22.8425 5.832C19.3145 5.832 16.6505 8.448 16.6505 12.096C16.6505 15.72 19.3145 18.36 22.8425 18.36C26.3705 18.36 29.0345 15.72 29.0345 12.096C29.0345 8.448 26.3705 5.832 22.8425 5.832ZM50.8278 18V0.983999H47.4918V7.824H40.0758V0.983999H36.7638V18H40.0758V10.944H47.4918V18H50.8278ZM56.2547 10.752C56.3267 9.672 57.2387 8.424 58.8947 8.424C60.7187 8.424 61.4867 9.576 61.5347 10.752H56.2547ZM61.8467 13.824C61.4627 14.88 60.6467 15.624 59.1587 15.624C57.5747 15.624 56.2547 14.496 56.1827 12.936H64.6307C64.6307 12.888 64.6787 12.408 64.6787 11.952C64.6787 8.16 62.4947 5.832 58.8467 5.832C55.8227 5.832 53.0387 8.28 53.0387 12.048C53.0387 16.032 55.8947 18.36 59.1347 18.36C62.0387 18.36 63.9107 16.656 64.5107 14.616L61.8467 13.824ZM65.9923 14.784C65.9923 16.632 67.5283 18.336 70.0483 18.336C71.8003 18.336 72.9283 17.52 73.5283 16.584C73.5283 17.04 73.5763 17.688 73.6483 18H76.5763C76.5043 17.592 76.4323 16.752 76.4323 16.128V10.32C76.4323 7.944 75.0403 5.832 71.2963 5.832C68.1283 5.832 66.4243 7.872 66.2323 9.72L69.0643 10.32C69.1603 9.288 69.9283 8.4 71.3203 8.4C72.6643 8.4 73.3123 9.096 73.3123 9.936C73.3123 10.344 73.0963 10.68 72.4243 10.776L69.5203 11.208C67.5523 11.496 65.9923 12.672 65.9923 14.784ZM70.7203 15.96C69.6883 15.96 69.1843 15.288 69.1843 14.592C69.1843 13.68 69.8323 13.224 70.6483 13.104L73.3123 12.696V13.224C73.3123 15.312 72.0643 15.96 70.7203 15.96ZM82.3618 18V0.623999H79.1698V18H82.3618ZM89.2352 2.664H86.3552V4.32C86.3552 5.376 85.7792 6.192 84.5312 6.192H83.9312V9.024H86.0672V14.52C86.0672 16.8 87.5072 18.168 89.8112 18.168C90.7472 18.168 91.3232 18 91.6112 17.88V15.24C91.4432 15.288 91.0112 15.336 90.6272 15.336C89.7152 15.336 89.2352 15 89.2352 13.968V9.024H91.6112V6.192H89.2352V2.664ZM96.4487 11.064C96.5207 9.768 97.3127 8.76 98.6567 8.76C100.193 8.76 100.841 9.792 100.841 11.112V18H104.033V10.56C104.033 7.968 102.641 5.88 99.6407 5.88C98.5127 5.88 97.2167 6.264 96.4487 7.176V0.623999H93.2567V18H96.4487V11.064Z" fill="black"/>
</svg>
