<svg width="581" height="376" viewBox="0 0 581 376" fill="none" xmlns="http://www.w3.org/2000/svg">
<path d="M579.795 372.09L362.279 371.318C362.014 366.796 380.933 359.449 387.317 356.238C427.698 335.932 467.886 296.741 448.334 246.26C426.608 190.22 372.447 187.443 374.627 214.219C375.591 226.272 393.836 231.85 396.941 226.31C399.087 222.482 393.392 219.151 389.058 218.524C377.78 216.885 367.645 230.394 356.271 230.577C350.196 230.688 335.958 232.872 338.19 238.532C344.087 237.972 343.436 229.087 338.913 225.288C334.391 221.489 326.72 222.362 320.833 222.878C314.256 223.437 301.811 224.43 303.475 230.832C305.162 237.341 316.358 237.22 323.725 242.162C327.954 245.002 342.289 250.358 341.565 247.224C344.603 260.386 360.852 255.27 374.68 257.049C473.363 269.719 402.881 174.821 376.719 197.225C390.876 185.105 386.69 158.782 357.915 140.105C318.663 114.645 271.199 153.3 286.329 194.096C297.819 225.115 359.834 277.544 369.743 208.318C370.601 202.306 364.641 191.782 370.403 189.839C378.118 187.24 372.814 172.546 363.691 167.662C360.938 166.182 358.036 169.345 359.656 172.001C364.781 180.452 345.953 177.261 336.753 173.606C300.592 159.235 302.347 214.484 289.984 203.955C262.641 180.684 280.698 146.314 260.572 128.746C241.952 138.697 294.396 183.914 306.565 167.315C309.155 163.786 345.013 145.49 344.444 113.439C344.159 97.53 356.98 73.0727 351.676 64.7467C339.945 46.364 311.021 52.4771 296.088 37.609C289.868 31.4139 279.695 18.4742 296.488 24.11C330.037 35.372 320.114 54.7141 329.979 66.1882C342.747 81.0757 360.148 83.1825 362.043 72.4556C364.352 59.3664 357.153 44.9755 349.666 34.6054C326.04 1.9379 268.316 -5.17317 244.309 12.8528C226.06 26.5446 227.024 54.1452 208.702 67.7358C198.953 74.9674 186.614 78.4868 177.665 86.8368C158.312 104.901 174.223 140.225 174.464 161.563C174.821 193.141 90.8915 211.799 121.518 262.613C128.75 274.617 133.572 277.124 141.287 278.571C140.872 268.22 136.86 257.107 144.083 247.947C162.487 224.565 177.063 249.152 186.595 223.601C201.489 183.673 245.418 184.068 233.528 151.608C225.163 128.78 217.188 121.052 225.168 98.2531C231.918 78.9689 260.177 76.1293 265.9 72.0989C271.889 67.8804 274.709 60.6006 278.436 54.2947C291.175 32.7541 310.403 45.7035 296.975 55.2203C290.138 60.0414 280.756 61.1984 275.278 67.5429C272.564 70.6911 268.191 81.2444 261.175 78.8966C257.356 77.619 255.997 72.6726 252.453 70.7586C237.197 62.5387 231.195 104.024 248.87 117.711C255.891 123.135 238.967 142.255 233.523 151.608C213.205 186.522 219.792 171.794 178.88 194.674C139.112 216.919 135.896 270.365 169.165 325.807C179.821 343.573 202.395 364.728 202.916 372.572H1.20532" stroke="white" stroke-width="5" stroke-linecap="round" stroke-linejoin="round"/>
</svg>
