<svg width="84" height="84" viewBox="0 0 84 84" fill="none" xmlns="http://www.w3.org/2000/svg">
<path fill-rule="evenodd" clip-rule="evenodd" d="M25.6124 50.6205C25.2968 50.4559 24.9793 50.292 24.6606 50.1303C21.4126 48.4865 18.1835 46.834 15.056 44.9628C14.2983 44.5098 12.8638 43.6199 11.6043 43.3207C10.7035 43.1068 9.85519 43.161 9.15969 43.4741C8.71648 43.6733 8.11344 44.1109 8.04447 45.0979C8.03279 45.2639 8.04296 45.5399 8.11551 45.8739C8.23333 46.4139 8.56316 47.3465 8.61637 47.4733C9.38419 49.3231 10.1265 51.0892 11.0439 52.871C11.8878 54.5109 12.6361 56.1944 13.5033 57.8242C14.8006 60.2627 16.2144 62.5596 17.9192 64.7388C18.5519 65.548 19.7227 65.6903 20.5319 65.0576C21.3402 64.4252 21.4838 63.255 20.851 62.4458C19.2813 60.4385 17.9838 58.3221 16.7898 56.0759C15.9302 54.4613 15.1891 52.792 14.3528 51.1674C13.8089 50.1103 13.3309 49.0585 12.8712 47.9903L13.1448 48.157C16.3482 50.0731 19.6534 51.7676 22.9795 53.4509C24.2242 54.0814 25.444 54.7487 26.6992 55.3596C26.8137 55.4512 27.3411 55.8702 27.5763 55.997C27.9676 56.2086 28.3422 56.2792 28.649 56.2772C29.4289 56.2731 30.1303 55.9729 30.52 54.9786C30.8117 54.2341 30.8015 53.2206 30.4426 52.1159C29.9499 50.5977 28.7573 48.7616 28.3519 47.8715C25.7859 42.2397 22.7464 36.7774 20.6083 30.9598C20.2542 29.9957 19.1841 29.5006 18.22 29.8547C17.2561 30.2096 16.7601 31.28 17.1151 32.2438C19.2847 38.1491 22.3595 43.698 24.9641 49.4153C25.1034 49.7192 25.3424 50.1395 25.6124 50.6205Z" fill="white"/>
<path fill-rule="evenodd" clip-rule="evenodd" d="M33.757 21.5537C31.9011 22.7038 30.0207 23.7864 28.8214 25.6673C27.567 27.6361 27.3469 30.0077 27.7558 32.4513C28.2775 35.5686 29.8388 38.81 30.9031 41.1346C31.4546 42.3382 32.0596 44.0654 32.8976 45.5038C33.6187 46.7403 34.5191 47.7705 35.5918 48.3571C37.2772 49.2785 39.2902 48.8102 41.064 47.3748C43.1133 45.7165 44.7759 42.8237 45.021 41.358C45.191 40.3451 44.5063 39.3844 43.4928 39.2156C42.4799 39.0455 41.5201 39.73 41.3501 40.7429C41.1946 41.6725 40.0226 43.4294 38.7226 44.4821C38.4322 44.7165 38.1349 44.916 37.8328 45.0353C37.6757 45.0977 37.5217 45.1699 37.3783 45.092C36.6742 44.7063 36.2135 43.871 35.783 43.0167C35.182 41.8262 34.7214 40.5317 34.2877 39.584C33.3354 37.5054 31.8936 34.6246 31.4266 31.8368C31.1765 30.342 31.1929 28.873 31.9611 27.6681C32.8524 26.2701 34.3367 25.5737 35.7172 24.7183C36.5905 24.1779 36.8603 23.0296 36.3191 22.1565C35.7787 21.2832 34.6303 21.0134 33.757 21.5537Z" fill="white"/>
<path fill-rule="evenodd" clip-rule="evenodd" d="M36.4785 30.9765C35.174 32.3049 33.7692 33.69 32.2763 34.8024C31.4526 35.4162 31.2818 36.5831 31.8947 37.4071C32.5085 38.2308 33.6753 38.4016 34.499 37.7878C36.1435 36.5631 37.6983 35.0476 39.1343 33.5858C39.8537 32.853 39.8435 31.6732 39.1107 30.9538C38.3777 30.2335 37.1991 30.2443 36.4785 30.9765Z" fill="white"/>
<path fill-rule="evenodd" clip-rule="evenodd" d="M58.2676 25.3713C56.4891 24.1952 54.6442 23.0665 52.7626 22.095C52.6093 22.0162 50.7787 21.2568 49.7718 21.0713C49.0927 20.9465 48.556 21.0497 48.2605 21.1718C47.4008 21.5271 47.0066 22.1715 47.035 23.0597C47.0629 23.9112 47.2361 24.7543 47.491 25.5911C45.4225 23.5238 43.4447 21.3519 41.8986 18.9017C41.7708 18.6994 41.6904 18.611 41.6767 18.5948C41.2641 18.1251 40.8579 18.0465 40.711 18.0115C39.989 17.8384 39.4556 18.0671 39.0537 18.4182C39.0044 18.4604 37.919 19.4 38.6526 20.732C38.7116 20.8395 39.1656 21.5952 39.3226 21.8966C39.4597 22.1583 39.6498 22.3738 39.8737 22.5371C42.1737 25.6866 45.0642 28.4433 47.8551 31.1447C48.4581 31.7285 48.9821 32.3597 49.4191 33.0758C49.547 33.2849 49.7275 33.7912 49.8559 34.0274C50.0739 34.4269 50.3354 34.6595 50.4912 34.7716C51.3014 35.3555 52.038 35.2158 52.6365 34.8204C52.8925 34.652 53.3982 34.2907 53.4922 33.37C53.7045 31.3014 53.0003 29.3028 52.1553 27.3306C51.9056 26.7472 51.6398 26.1686 51.4083 25.5874C53.4713 26.6787 55.4823 27.963 57.4039 29.2735C57.6151 29.4174 59.694 30.679 60.1848 30.8116C61.413 31.1456 62.065 30.4149 62.3193 30.0203C62.7067 29.4178 62.8861 28.5315 62.7582 27.5111C62.5915 26.1912 61.8956 24.517 61.6672 23.8278C60.1304 19.1889 58.4729 14.3552 56.0333 10.112C55.5217 9.22115 54.3834 8.91418 53.4926 9.42585C52.6017 9.93751 52.2951 11.0767 52.8065 11.9666C55.1227 15.9965 56.6744 20.5949 58.1337 24.9987C58.1676 25.1002 58.2137 25.2262 58.2676 25.3713Z" fill="white"/>
<path fill-rule="evenodd" clip-rule="evenodd" d="M60.5773 7.43396C62.1731 10.3574 63.7612 13.252 65.1605 16.3316C65.5857 17.2673 66.6896 17.682 67.6253 17.2568C68.5601 16.832 68.9748 15.728 68.5496 14.7923C66.5765 10.4488 64.2388 6.46634 62.0174 2.26557C61.1598 0.641589 59.5936 1.38238 59.4984 1.43082C59.2887 1.53752 58.1591 2.16277 58.55 3.58945C58.5736 3.67661 58.8175 4.26959 58.8994 4.50339C59.0859 5.03899 59.2366 5.57192 59.3744 6.12333C59.533 6.75888 60.0004 7.23614 60.5773 7.43396Z" fill="white"/>
<path fill-rule="evenodd" clip-rule="evenodd" d="M70.79 24.4287C70.8031 23.8236 70.5199 23.2231 69.9835 22.8544C69.1361 22.273 67.9771 22.4889 67.3958 23.3363C66.8588 24.1186 66.9363 24.8489 67.2887 25.6637C67.6966 26.6066 68.7938 27.0408 69.7365 26.632C70.5986 26.2594 71.0349 25.3094 70.79 24.4287Z" fill="white"/>
<path fill-rule="evenodd" clip-rule="evenodd" d="M47.6443 69.0101C47.3455 68.6808 47.1071 68.4218 47.0526 68.3674C44.4563 65.7779 41.7318 63.2723 38.8903 60.954C38.0941 60.3045 36.9213 60.4235 36.2718 61.2196C35.6223 62.0158 35.7413 63.1887 36.5374 63.8382C39.2829 66.0777 41.915 68.5006 44.4244 71.0027C44.6158 71.1935 46.0455 72.971 46.8832 73.6389C47.6423 74.2433 48.386 74.3154 48.7814 74.2562C49.4094 74.1621 50.2838 73.6603 50.7364 72.4096C51.3276 70.7771 51.5375 66.8328 51.5707 66.1787C51.6303 64.9757 51.6139 63.7374 51.5831 62.5377C51.524 60.2618 51.2069 58.0237 50.8494 55.7805C50.688 54.7654 49.7332 54.0738 48.7181 54.2352C47.7042 54.3972 47.0117 55.3524 47.1737 56.3663C47.5052 58.4472 47.8076 60.5224 47.8621 62.6333C47.8901 63.7405 47.9077 64.884 47.8529 65.9941C47.8357 66.3272 47.7913 67.6948 47.6443 69.0101Z" fill="white"/>
</svg>
