<svg width="65" height="69" viewBox="0 0 65 69" fill="none" xmlns="http://www.w3.org/2000/svg">
<path fill-rule="evenodd" clip-rule="evenodd" d="M25.7273 13.7945C25.5398 12.682 25.3985 11.5822 25.3073 10.4822C25.1698 8.83217 25.2548 7.16955 25.206 5.51955C25.1848 4.81955 25.101 2.99458 25.1348 2.73208C25.441 0.444578 27.2873 0.0945352 27.8273 0.0320352C28.0885 -0.00546475 30.771 -0.305331 31.3497 2.66967C32.0597 6.30717 32.2873 9.96962 32.036 13.5571C32.6223 16.6071 33.6248 19.6446 34.9485 22.3946C40.216 33.3321 50.2535 34.3946 61.1285 34.2946C62.801 34.2696 64.1898 35.5821 64.2773 37.2446C64.3648 38.9196 63.1198 40.3696 61.4548 40.5196C55.376 41.1071 44.591 45.9821 40.8622 51.0571C40.0822 52.1196 39.6285 54.6822 39.0285 57.1947C38.191 60.6822 37.1948 64.1321 36.0785 65.5821C35.911 65.8071 33.8747 68.1072 33.2672 68.4447C31.8072 69.2447 30.6385 68.7821 29.9748 68.3571C29.311 67.9321 28.5598 67.0946 28.2598 65.7071C27.946 64.2571 28.211 61.282 28.1623 60.6445C27.9848 58.332 27.5223 53.7946 26.5785 49.8946C26.0698 47.7946 25.5273 45.8571 24.6298 44.8946C21.3073 41.3321 15.9948 41.8571 11.521 42.4446C11.0073 42.5071 10.4935 42.5821 9.98103 42.6446C8.15978 43.1821 6.22598 43.5821 4.18223 43.8196C1.09598 44.1821 0.588515 41.3446 0.561015 41.1571C0.503515 40.7446 0.289742 38.6196 2.61599 37.7696C2.86974 37.6821 4.74226 37.2696 5.46351 37.1071C6.46851 36.8821 7.48474 36.7071 8.50474 36.5446C19.041 33.2696 24.7635 24.0695 25.7273 13.7945ZM29.3435 25.1572C33.321 33.3822 39.3572 37.3571 46.5122 39.1571H46.511C42.0435 41.4946 37.9797 44.4197 35.826 47.3572C35.0085 48.4697 34.2585 50.7071 33.5823 53.2196C33.216 50.8821 32.721 48.3945 32.0673 46.2695C31.3235 43.8445 30.3222 41.8322 29.2047 40.6322C27.0472 38.3197 24.3397 37.0321 21.4285 36.3946C24.9135 33.3071 27.556 29.4572 29.3435 25.1572Z" fill="#1F1F1F"/>
</svg>
