<svg width="59" height="31" viewBox="0 0 59 31" fill="none" xmlns="http://www.w3.org/2000/svg">
<path fill-rule="evenodd" clip-rule="evenodd" d="M55.8603 4.5672C44.7868 25.1582 22.6663 33.5295 2.12121 21.9373C1.43726 21.5513 0.569933 21.7926 0.183928 22.4681C-0.202077 23.1557 0.0392022 24.0242 0.723155 24.4102C22.7447 36.8468 46.4949 27.9808 58.3645 5.91821C58.7361 5.23064 58.4767 4.36201 57.7855 3.98807C57.0944 3.62619 56.2319 3.87962 55.8603 4.5672Z" fill="#1F1F1F"/>
<path d="M19.4105 13.1063C21.6979 13.1063 23.5523 11.252 23.5523 8.96454C23.5523 6.67712 21.6979 4.82282 19.4105 4.82282C17.1231 4.82282 15.2688 6.67712 15.2688 8.96454C15.2688 11.252 17.1231 13.1063 19.4105 13.1063Z" fill="#1F1F1F"/>
<path d="M36.5566 8.70049C38.7993 8.70049 40.6175 6.88244 40.6175 4.63972C40.6175 2.397 38.7993 0.578949 36.5566 0.578949C34.3139 0.578949 32.4958 2.397 32.4958 4.63972C32.4958 6.88244 34.3139 8.70049 36.5566 8.70049Z" fill="#1F1F1F"/>
</svg>
